<svg xmlns="http://www.w3.org/2000/svg" width="378.49" height="379.04" viewBox="0 0 378.49 379.04">
	<style type="text/css">
		.st0{fill:#b9b9b9;}
	</style>
	<path class="st0" d="M327.93,319.04C327.84,319.04 327.84,319.12 327.93,319.04C324.8,322.4 321.61,325.44 318.16,328.8C312.96,333.76 307.68,338.96 302.73,344.8C294.64,353.44 285.12,357.52 272.64,357.52C271.45,357.52 270.16,357.52 268.96,357.44C245.21,355.92 223.12,346.64 206.57,338.72C161.28,316.8 121.52,285.68 88.48,246.24C61.21,213.36 42.96,182.96 30.89,150.32C23.45,130.4 20.73,114.88 21.93,100.24C22.73,90.88 26.32,83.12 32.96,76.48L60.25,49.2C64.16,45.52 68.32,43.52 72.41,43.52C77.45,43.52 81.52,46.56 84.09,49.12L84.32,49.36C89.21,53.92 93.84,58.64 98.73,63.68C101.21,66.24 103.77,68.8 106.32,71.44L128.16,93.28C136.64,101.76 136.64,109.6 128.16,118.08C125.84,120.4 123.6,122.72 121.28,124.96C114.57,131.84 108.16,138.24 101.21,144.48C101.05,144.64 100.89,144.72 100.8,144.88C93.93,151.76 95.21,158.48 96.64,163.04L96.89,163.76C102.57,177.52 110.57,190.48 122.73,205.92L122.8,206C144.89,233.2 168.16,254.4 193.84,270.64C197.12,272.72 200.48,274.4 203.68,276C206.57,277.44 209.28,278.8 211.61,280.24C211.93,280.4 212.25,280.64 212.57,280.8C215.28,282.16 217.84,282.8 220.48,282.8C227.12,282.8 231.28,278.64 232.64,277.28L260,249.92C262.73,247.2 267.05,243.92 272.09,243.92C277.05,243.92 281.12,247.04 283.61,249.76L327.84,294C336.09,302.16 336.09,310.56 327.93,319.04M299.28,234.8C291.52,226.72 282.16,222.4 272.25,222.4C262.41,222.4 252.96,226.64 244.89,234.72L219.61,259.92C217.52,258.8 215.45,257.76 213.45,256.72C210.57,255.28 207.84,253.92 205.52,252.48C181.84,237.44 160.32,217.84 139.68,192.48C129.68,179.84 122.96,169.2 118.09,158.4C124.64,152.4 130.73,146.16 136.64,140.16C138.89,137.92 141.12,135.6 143.37,133.36C160.16,116.56 160.16,94.8 143.37,78L121.52,56.16C119.05,53.68 116.48,51.12 114.09,48.56C109.28,43.6 104.25,38.48 99.05,33.68C91.28,26 82,21.92 72.25,21.92C62.48,21.92 53.05,26 45.05,33.68L44.89,33.84L17.68,61.28C7.45,71.52 1.6,84 0.32,98.48C-1.58,121.84 5.28,143.6 10.57,157.84C23.52,192.8 42.89,225.2 71.77,259.92C106.8,301.76 148.96,334.8 197.12,358.08C215.52,366.8 240.09,377.12 267.52,378.88C269.21,378.96 270.96,379.04 272.57,379.04C291.05,379.04 306.57,372.4 318.73,359.2C318.8,359.04 318.96,358.96 319.05,358.8C323.21,353.76 328,349.2 333.05,344.32C336.48,341.04 340,337.6 343.45,334C351.37,325.76 355.52,316.16 355.52,306.32C355.52,296.4 351.28,286.88 343.21,278.88Z"/>
	<path class="st0" d="M204.57,90.16C225.52,93.68 244.57,103.6 259.76,118.8C274.96,134 284.8,153.04 288.41,174C289.28,179.28 293.84,182.96 299.05,182.96C299.68,182.96 300.25,182.88 300.89,182.8C306.8,181.84 310.73,176.24 309.76,170.32C305.44,144.96 293.44,121.84 275.12,103.52C256.8,85.2 233.68,73.2 208.32,68.88C202.41,67.92 196.89,71.84 195.84,77.68C194.8,83.52 198.64,89.2 204.57,90.16"/>
	<path class="st0" d="M378.32,167.2C371.21,125.44 351.52,87.44 321.28,57.2C291.05,26.96 253.05,7.28 211.28,0.16C205.44,-0.87 199.93,3.12 198.89,8.96C197.93,14.88 201.84,20.4 207.76,21.44C245.05,27.76 279.05,45.44 306.09,72.4C333.12,99.44 350.73,133.44 357.05,170.72C357.93,176 362.48,179.68 367.68,179.68C368.32,179.68 368.89,179.6 369.52,179.52C375.37,178.64 379.37,173.04 378.32,167.2"/>
</svg>